# xmcd
# 
# Track frame offsets:
#     150
#     22640
#     40580
#     67622
#     88455
#     103817
#     132227
#     156327
#     177600
# 
# Disc length: 2697
# 
# Revision: 23
# Processed by: cddbd v1.5.2PL0 Copyright (c) Steve Scherf et al.
# Submitted via: fre:ac v1.0.17
# 
DISCID=6e0a8709
DTITLE=Sade - Diamond Life
DYEAR=1984
DGENRE=Jazz
TTITLE0=Smooth operator
TTITLE1=Your love is King
TTITLE2=Hang on to your love
TTITLE3=Frankie's first affair
TTITLE4=When am I going to make a living
TTITLE5=Cherry pie
TTITLE6=Sally
TTITLE7=I will be your friend
TTITLE8=Why can't we live together
EXTD=
EXTT0=
EXTT1=
EXTT2=
EXTT3=
EXTT4=
EXTT5=
EXTT6=
EXTT7=
EXTT8=
PLAYORDER=
